<svg id="圖層_1" data-name="圖層 1" xmlns="http://www.w3.org/2000/svg" viewBox="0 0 50 50"><defs><style>.cls-1{fill:#9fa0a0;}</style></defs><path class="cls-1" d="M32.99168,16.198a.74992.74992,0,0,0-.55664-.24854l-14.86817-.02h-.001a.75129.75129,0,0,0-.7461.82862l1.752,16.62158a.74978.74978,0,0,0,.74511.67139l11.36426.01953h.001a.74993.74993,0,0,0,.74609-.67139l1.75195-16.62109A.74757.74757,0,0,0,32.99168,16.198Zm-1.39063,1.25049-.33984,3.22418a20.59963,20.59963,0,0,1-2.43555.33978,17.87376,17.87376,0,0,1-4.51855-.47266,12.25457,12.25457,0,0,0-3.03223-.3706,25.10469,25.10469,0,0,0-2.55945.26453l-.31653-3.0033ZM30.0073,32.56958,19.99265,32.552,18.87272,21.92615c.8197-.11457,1.94434-.257,2.40216-.257a10.84554,10.84554,0,0,1,2.70606.335,19.18913,19.18913,0,0,0,4.84472.5083,17.50868,17.50868,0,0,0,2.27191-.28705Z"/><path class="cls-1" d="M24.59129,23.74292a1.48535,1.48535,0,1,0,1.48535,1.48535A1.48757,1.48757,0,0,0,24.59129,23.74292Zm0,2.09082a.60547.60547,0,1,1,.60449-.60547A.60515.60515,0,0,1,24.59129,25.83374Z"/><path class="cls-1" d="M27.57273,25.98364a1.7605,1.7605,0,1,0,1.76075,1.76074A1.763,1.763,0,0,0,27.57273,25.98364Zm0,2.64112a.88062.88062,0,1,1,.87989-.88038A.88106.88106,0,0,1,27.57273,28.62476Z"/></svg>