<svg id="圖層_1" data-name="圖層 1" xmlns="http://www.w3.org/2000/svg" viewBox="0 0 50 50"><defs><style>.cls-1{fill:#9fa0a0;}</style></defs><path class="cls-1" d="M34.13086,11.22314H15.86914a.99943.99943,0,0,0-1,1V37.77686a.99943.99943,0,0,0,1,1H34.13086a.99943.99943,0,0,0,1-1V12.22314A.99943.99943,0,0,0,34.13086,11.22314ZM26.9707,36.77686H23.17578V30.72021H26.9707Zm6.16016,0H28.4707V29.97021a.75019.75019,0,0,0-.75-.75H22.42578a.7502.7502,0,0,0-.75.75v6.80665H16.86914V13.22314H33.13086Z"/><path class="cls-1" d="M20.31055,19.09717h2.59668a.49972.49972,0,0,0,.5-.5V16.00049a.49972.49972,0,0,0-.5-.5H20.31055a.49971.49971,0,0,0-.5.5v2.59668A.49971.49971,0,0,0,20.31055,19.09717Zm.5-2.59668h1.59668v1.59668H20.81055Z"/><path class="cls-1" d="M20.31055,23.44189h2.59668a.49972.49972,0,0,0,.5-.5V20.34521a.49972.49972,0,0,0-.5-.5H20.31055a.49972.49972,0,0,0-.5.5v2.59668A.49971.49971,0,0,0,20.31055,23.44189Zm.5-2.59668h1.59668v1.59668H20.81055Z"/><path class="cls-1" d="M20.31055,27.78564h2.59668a.49972.49972,0,0,0,.5-.5v-2.5957a.49972.49972,0,0,0-.5-.5H20.31055a.49971.49971,0,0,0-.5.5v2.5957A.49971.49971,0,0,0,20.31055,27.78564Zm.5-2.5957h1.59668v1.5957H20.81055Z"/><path class="cls-1" d="M27.09277,19.09717h2.59668a.49971.49971,0,0,0,.5-.5V16.00049a.49971.49971,0,0,0-.5-.5H27.09277a.49972.49972,0,0,0-.5.5v2.59668A.49972.49972,0,0,0,27.09277,19.09717Zm.5-2.59668h1.59668v1.59668H27.59277Z"/><path class="cls-1" d="M27.09277,23.44189h2.59668a.49971.49971,0,0,0,.5-.5V20.34521a.49972.49972,0,0,0-.5-.5H27.09277a.49972.49972,0,0,0-.5.5v2.59668A.49972.49972,0,0,0,27.09277,23.44189Zm.5-2.59668h1.59668v1.59668H27.59277Z"/><path class="cls-1" d="M27.09277,27.78564h2.59668a.49971.49971,0,0,0,.5-.5v-2.5957a.49971.49971,0,0,0-.5-.5H27.09277a.49972.49972,0,0,0-.5.5v2.5957A.49972.49972,0,0,0,27.09277,27.78564Zm.5-2.5957h1.59668v1.5957H27.59277Z"/></svg>