<svg id="圖層_1" data-name="圖層 1" xmlns="http://www.w3.org/2000/svg" viewBox="0 0 50 50"><defs><style>.cls-1{fill:#9fa0a0;}</style></defs><path class="cls-1" d="M20.223,22.43652a.62412.62412,0,0,0-.752-.17969l-8.77343,4.03906a.62543.62543,0,0,0-.22852.95508l4.11426,5.19336a.6271.6271,0,0,0,.09473.0957l2.51855,2.06055,1.42969,2.92285a.62632.62632,0,0,0,.49707.34766q.03222.00292.06445.00293a.62656.62656,0,0,0,.49317-.24024l5.93847-7.61816a.62479.62479,0,0,0-.00293-.77149ZM17.64841,33.35577l-1.578-1.29157,6.25751-4.95813.61963.782Zm-3.704-3.73108,6.9906-4.27661.61664.77819-6.376,5.05207Zm5.60376-6.027.6048.76336-6.99066,4.27668-1.21961-1.53907Zm-.23828,12.47851L18.452,34.32281l5.27857-5.44641.60083.75836Z"/><path class="cls-1" d="M39.44956,12.50585a.99925.99925,0,0,0-1.40527-.16308L24.44474,23.11694,22.83237,21.082A1.00035,1.00035,0,0,0,21.264,22.32421l2.23255,2.81763.00085.00171.00134.001,2.233,2.8183a1.00035,1.00035,0,1,0,1.56836-1.24218l-1.61292-2.03565L39.28647,13.91112A1.00112,1.00112,0,0,0,39.44956,12.50585Z"/></svg>