<svg xmlns="http://www.w3.org/2000/svg" viewBox="0 0 50 50"><defs><style>.cls-1{opacity:0.5;}.cls-2{fill:none;stroke:#9fa0a0;stroke-linecap:round;stroke-linejoin:round;stroke-width:1.25px;}</style></defs><g id="圖層_1" data-name="圖層 1"><path class="cls-2" d="M27.04072,21.29109H13.98506a2,2,0,0,0-2,2v8.20008a1.10937,1.10937,0,0,0,1.10937,1.10937h0a1.10938,1.10938,0,0,1,1.10938,1.10937v2.41681l2.0748-2.735a2,2,0,0,1,1.59338-.79122h9.16873a2,2,0,0,0,2-2V23.29109A2,2,0,0,0,27.04072,21.29109Z"/><path class="cls-2" d="M20.95924,18.6995V15.87328a2,2,0,0,1,2-2H36.0149a2,2,0,0,1,2,2v8.20007a1.10937,1.10937,0,0,1-1.10937,1.10937h0a1.10938,1.10938,0,0,0-1.10938,1.10938v2.41681l-2.3421-3.0873a1.10937,1.10937,0,0,0-.88383-.43889H31.55408"/><line class="cls-2" x1="15.37973" y1="24.61753" x2="25.5967" y2="24.61753"/><line class="cls-2" x1="15.37973" y1="27.10939" x2="25.5967" y2="27.10939"/><line class="cls-2" x1="15.37973" y1="29.60126" x2="25.5967" y2="29.60126"/></g></svg>