<svg id="圖層_1" data-name="圖層 1" xmlns="http://www.w3.org/2000/svg" viewBox="0 0 50 50"><defs><style>.cls-1{fill:#9fa0a0;}</style></defs><path class="cls-1" d="M16.79753,29.76489H13.49382a.73155.73155,0,0,1-.73047-.73047V25.73071a.73155.73155,0,0,1,.73047-.73047h3.30371a.73155.73155,0,0,1,.73047.73047v3.30371A.73155.73155,0,0,1,16.79753,29.76489Zm-3.03418-1H16.528V26.00024H13.76335Z"/><path class="cls-1" d="M23.41569,29.76489H20.112a.73155.73155,0,0,1-.73047-.73047V25.73071a.73155.73155,0,0,1,.73047-.73047h3.30371a.73154.73154,0,0,1,.73047.73047v3.30371A.73154.73154,0,0,1,23.41569,29.76489Zm-3.03418-1h2.76465V26.00024H20.38151Z"/><path class="cls-1" d="M30.03288,29.76489H26.72917a.73155.73155,0,0,1-.73047-.73047V25.73071a.73155.73155,0,0,1,.73047-.73047h3.30371a.73154.73154,0,0,1,.73047.73047v3.30371A.73154.73154,0,0,1,30.03288,29.76489Zm-3.03418-1h2.76465V26.00024H26.9987Z"/><path class="cls-1" d="M36.65007,29.76489H33.34636a.73154.73154,0,0,1-.73047-.73047V25.73071a.73154.73154,0,0,1,.73047-.73047h3.30371a.73155.73155,0,0,1,.73047.73047v3.30371A.73155.73155,0,0,1,36.65007,29.76489Zm-3.03418-1h2.76465V26.00024H33.61589Z"/><path class="cls-1" d="M39.1989,34.07446H10.80144a1.57864,1.57864,0,0,1-1.57715-1.57715V17.50268a1.57864,1.57864,0,0,1,1.57715-1.57715H39.1989a1.57865,1.57865,0,0,1,1.57715,1.57715V32.49731A1.57865,1.57865,0,0,1,39.1989,34.07446ZM10.80144,17.42553a.07929.07929,0,0,0-.07715.07715V32.49731a.07928.07928,0,0,0,.07715.07715H39.1989a.07929.07929,0,0,0,.07715-.07715V17.50268a.07929.07929,0,0,0-.07715-.07715Z"/><path class="cls-1" d="M40.02605,22.11889H9.97429a.75.75,0,0,1,0-1.5H40.02605a.75.75,0,0,1,0,1.5Z"/></svg>