<svg id="圖層_1" data-name="圖層 1" xmlns="http://www.w3.org/2000/svg" viewBox="0 0 50 50"><defs><style>.cls-1{fill:#9fa0a0;}</style></defs><path class="cls-1" d="M16.43115,27.6958A3.29785,3.29785,0,1,0,13.1333,24.398,3.30086,3.30086,0,0,0,16.43115,27.6958Zm0-5.0957A1.79785,1.79785,0,1,1,14.6333,24.398,1.79922,1.79922,0,0,1,16.43115,22.6001Z"/><path class="cls-1" d="M18.12354,28.19385h-2.75a4.94961,4.94961,0,0,0-4.94434,4.94433V34.854a.75019.75019,0,0,0,.75.75H22.31689a.75018.75018,0,0,0,.75-.75V33.13818A4.9494,4.9494,0,0,0,18.12354,28.19385ZM21.56689,34.104H11.9292v-.96582a3.448,3.448,0,0,1,3.44434-3.44433h2.75a3.44777,3.44777,0,0,1,3.44335,3.44433Z"/><path class="cls-1" d="M37.22607,14.396H19.2876a2.34811,2.34811,0,0,0-2.34571,2.34472v1.99121a.75.75,0,0,0,1.5,0V16.74072a.84584.84584,0,0,1,.84571-.84472H37.22607a.84563.84563,0,0,1,.84473.84472V28.71631a.84564.84564,0,0,1-.84473.84473H25.561a.75.75,0,0,0,0,1.5h11.665a2.34728,2.34728,0,0,0,2.34473-2.34473V16.74072A2.34727,2.34727,0,0,0,37.22607,14.396Z"/><path class="cls-1" d="M29.104,28.19287l.0293.001a.748.748,0,0,0,.58008-.27539L35.062,21.38135a.74949.74949,0,1,0-1.16015-.94922l-4.71973,5.76758L27.397,23.6333a.75011.75011,0,1,0-1.23242.85547l2.35254,3.38281A.74937.74937,0,0,0,29.104,28.19287Z"/></svg>