<svg id="圖層_1" data-name="圖層 1" xmlns="http://www.w3.org/2000/svg" viewBox="0 0 50 50"><defs><style>.cls-1{fill:#9fa0a0;}</style></defs><path class="cls-1" d="M30.24968,12.15876h-15.583a.7502.7502,0,0,0-.75.75v25.0957a.75019.75019,0,0,0,.75.75h15.583a.75019.75019,0,0,0,.75-.75V12.90876A.7502.7502,0,0,0,30.24968,12.15876Zm-14.833,8.02588h14.083v5.5918h-14.083Zm14.083-6.52588v5.02588h-14.083V13.65876Zm-14.083,23.5957v-9.978h14.083v9.978Z"/><path class="cls-1" d="M25.1071,28.65632H19.46355a.75.75,0,0,0,0,1.5H25.1071a.75.75,0,0,0,0-1.5Z"/><path class="cls-1" d="M40.51433,25.2237H37.01921V22.98249a.84961.84961,0,0,1,1.69922,0v1.03027a.59375.59375,0,0,0,1.1875,0V22.98249a2.03711,2.03711,0,0,0-4.07422,0V25.2237h-.8916a.59349.59349,0,0,0-.59375.59375v6.04248a.59348.59348,0,0,0,.59375.59375h5.57422a.59349.59349,0,0,0,.59375-.59375V25.81745A.59349.59349,0,0,0,40.51433,25.2237Zm-.59375,6.04248H35.53386v-4.855h4.38672Z"/><path class="cls-1" d="M37.727,30.21644a.81.81,0,0,0,.80994-.81.80162.80162,0,0,0-.43475-.70587v-.83624a.375.375,0,1,0-.75,0v.83593a.80155.80155,0,0,0-.43518.70618A.81.81,0,0,0,37.727,30.21644Z"/></svg>