<svg id="圖層_1" data-name="圖層 1" xmlns="http://www.w3.org/2000/svg" viewBox="0 0 50 50"><defs><style>.cls-1{fill:#9fa0a0;}</style></defs><path class="cls-1" d="M32.18816,16.9947h-14.376a2.75624,2.75624,0,0,0-2.75293,2.75293V30.252a2.75665,2.75665,0,0,0,2.75293,2.75342h14.376A2.75666,2.75666,0,0,0,34.94109,30.252V19.74763A2.75624,2.75624,0,0,0,32.18816,16.9947Zm-14.376,1.5h14.376a1.2546,1.2546,0,0,1,1.25293,1.25293v1.33123L25.9196,26.30964a1.61576,1.61576,0,0,1-1.83887,0l-7.52148-5.23078V19.74763A1.2546,1.2546,0,0,1,17.81218,18.4947Zm14.376,13.01074h-14.376A1.255,1.255,0,0,1,16.55925,30.252V22.70759l6.75781,4.6997a2.96086,2.96086,0,0,0,3.36621,0l6.75782-4.6997V30.252A1.255,1.255,0,0,1,32.18816,31.50544Z"/></svg>