<svg id="圖層_1" data-name="圖層 1" xmlns="http://www.w3.org/2000/svg" viewBox="0 0 50 50"><defs><style>.cls-1{fill:#9fa0a0;}</style></defs><path class="cls-1" d="M19.53776,26.67065a4.00781,4.00781,0,1,1,4.00684-4.00781A4.01229,4.01229,0,0,1,19.53776,26.67065Zm0-6.51562a2.50781,2.50781,0,1,0,2.50684,2.50781A2.51065,2.51065,0,0,0,19.53776,20.155Z"/><path class="cls-1" d="M26.29558,36.071H13.59148a1.52092,1.52092,0,0,1-1.51856-1.519V33.12719a6.11962,6.11962,0,0,1,6.11231-6.11279h3.5166a6.11961,6.11961,0,0,1,6.1123,6.11279V34.552A1.52092,1.52092,0,0,1,26.29558,36.071ZM18.18523,28.5144a4.618,4.618,0,0,0-4.61231,4.61279V34.552l12.72266.019a.01836.01836,0,0,0,.01855-.019V33.12719a4.618,4.618,0,0,0-4.6123-4.61279Z"/><path class="cls-1" d="M31.818,20.29907A3.18506,3.18506,0,1,1,35.00261,17.114,3.18864,3.18864,0,0,1,31.818,20.29907Zm0-4.87012A1.68506,1.68506,0,1,0,33.50261,17.114,1.687,1.687,0,0,0,31.818,15.429Z"/><path class="cls-1" d="M36.40788,27.92163H27.30046a1.52092,1.52092,0,0,1-1.51855-1.519V25.532a4.76415,4.76415,0,0,1,4.75878-4.75879h2.62793A4.76415,4.76415,0,0,1,37.92741,25.532v.8706A1.52113,1.52113,0,0,1,36.40788,27.92163Zm-5.86719-5.64844A3.26251,3.26251,0,0,0,27.28191,25.532v.8706l9.126.01905a.01918.01918,0,0,0,.01953-.01905V25.532a3.26251,3.26251,0,0,0-3.25879-3.25879Z"/></svg>