<svg id="圖層_1" data-name="圖層 1" xmlns="http://www.w3.org/2000/svg" viewBox="0 0 50 50"><defs><style>.cls-1{fill:#9fa0a0;}</style></defs><path class="cls-1" d="M37.63933,23.649h-.43262V17.546a2.34342,2.34342,0,0,0-2.34082-2.34082H15.22722A2.34342,2.34342,0,0,0,12.8864,17.546v6.103H12.361a1.65346,1.65346,0,0,0-1.65137,1.65137v7.84326A1.65345,1.65345,0,0,0,12.361,34.795h4.42383a1.65262,1.65262,0,0,0,1.65039-1.65137V32.294h13.1289v.84961A1.65345,1.65345,0,0,0,33.2155,34.795h4.42383a1.65345,1.65345,0,0,0,1.65136-1.65137V25.30036A1.65345,1.65345,0,0,0,37.63933,23.649ZM14.3864,17.546a.84146.84146,0,0,1,.84082-.84082H34.86589a.84146.84146,0,0,1,.84082.84082v6.103H33.2155a1.65346,1.65346,0,0,0-1.65137,1.65137v.61719H18.43523v-.61719A1.65263,1.65263,0,0,0,16.78484,23.649H14.3864Zm2.54883,15.59765a.151.151,0,0,1-.15039.15137H12.361a.15181.15181,0,0,1-.15137-.15137V25.30036A.15182.15182,0,0,1,12.361,25.149h4.42383a.151.151,0,0,1,.15039.15137v7.84326Zm1.5-2.34961V27.41755h13.1289V30.794Zm19.35546,2.34961a.1518.1518,0,0,1-.15136.15137H33.2155a.15181.15181,0,0,1-.15137-.15137V25.30036a.15182.15182,0,0,1,.15137-.15137h4.42383a.15181.15181,0,0,1,.15136.15137Z"/></svg>