<svg id="圖層_1" data-name="圖層 1" xmlns="http://www.w3.org/2000/svg" viewBox="0 0 50 50"><defs><style>.cls-1{fill:#9fa0a0;}</style></defs><path class="cls-1" d="M35.06218,23.44489a.74883.74883,0,0,0-.48926-.55908L15.8405,16.40241a.75117.75117,0,0,0-.95313.46289l-3.334,9.58838a.74919.74919,0,0,0,.46289.95508l4.94141,1.7074v1.50451a1.26992,1.26992,0,0,1-1.26856,1.26807H12.2614a1,1,0,0,0,0,2h3.42773a3.27158,3.27158,0,0,0,3.26856-3.26807V29.8072l6.55273,2.26416a.75959.75959,0,0,0,.24512.041.75113.75113,0,0,0,.5039-.19433l8.57227-7.76758A.74769.74769,0,0,0,35.06218,23.44489Zm-9.48145,7.06348-12.36425-4.272L16.05827,18.065l16.82715,5.82422Z"/><path class="cls-1" d="M37.98405,27.294,34.79753,26.1861a.75047.75047,0,0,0-.749.15235l-3.63477,3.28711a.74945.74945,0,0,0,.25684,1.26464l3.18652,1.10743a.74966.74966,0,0,0,.749-.15235l3.63477-3.28662a.74946.74946,0,0,0-.25684-1.26465Zm-4.05468,3.14063-1.57032-.5459,2.36621-2.13965,1.57032.5459Z"/><path class="cls-1" d="M17.36589,26.53669a1.80469,1.80469,0,1,0-1.03125-.91748A1.78946,1.78946,0,0,0,17.36589,26.53669Zm-.167-1.96777a.79988.79988,0,0,1,.4082-.46.80269.80269,0,0,1,.61524-.03564.80509.80509,0,0,1,.49511,1.02344l-.001.00049a.80346.80346,0,1,1-1.51758-.52832Z"/></svg>