<svg id="圖層_1" data-name="圖層 1" xmlns="http://www.w3.org/2000/svg" viewBox="0 0 50 50"><defs><style>.cls-1{fill:#9fa0a0;}</style></defs><path class="cls-1" d="M38.34,17.68329l-15.85-2.59a.81989.81989,0,0,0-.27.01l-10.59,2.09a.75085.75085,0,0,0-.6.74v13.67a.75029.75029,0,0,0,.62994.74l15.44,2.51a2.056,2.056,0,0,0,.51.06,1.76991,1.76991,0,0,0,.24-.01,1.4234,1.4234,0,0,0,.28-.05l10.23-2.02a.74989.74989,0,0,0,.61-.74v-13.67A.75174.75174,0,0,0,38.34,17.68329Zm-15.96-1.08,11.97,1.95-6.74,1.33-3.29-.54h-.01l-3.56-.58-5.1-.83Zm1.06,4.12v6.49005l-2.68-.43006v-6.5Zm3.44,12.58-14.35-2.34v-12.02l6.73,1.09v7.38a.74276.74276,0,0,0,.63.74l4.18.68005a.48916.48916,0,0,0,.12.00995.78819.78819,0,0,0,.49-.17.76724.76724,0,0,0,.26-.58V20.96332l1.94.31994Zm10.59-1.82-9.09,1.79v-12.01l9.09-1.8Z"/></svg>