<svg id="圖層_1" data-name="圖層 1" xmlns="http://www.w3.org/2000/svg" viewBox="0 0 50 50"><defs><style>.cls-1{fill:#9fa0a0;}</style></defs><path class="cls-1" d="M21.05339,38.95253a2.00405,2.00405,0,0,1-.82031-.17285c-1.18262-.52246-4.05078-2.40039-5.13086-8.51953a21.069,21.069,0,0,1,0-7.3584c1.08008-6.12012,3.94824-7.998,5.13086-8.52051a2.07007,2.07007,0,0,1,1.28906-.12109l3.49316.77539A1.00444,1.00444,0,0,1,25.777,16.0746l-.70312,4.19922a.96039.96039,0,0,1-1.03809.80176l-2.70117-.06543a.56155.56155,0,0,0-.36523.1084,5.95328,5.95328,0,0,0-1.9795,3.82519,8.83191,8.83191,0,0,0,0,3.27442h0a5.94059,5.94059,0,0,0,1.98047,3.82519.58233.58233,0,0,0,.36328.10743l2.70215-.06543a.96643.96643,0,0,1,1.03711.793l.69531,4.13477a1.00994,1.00994,0,0,1-.7041,1.10059l-3.542.78711A2.19593,2.19593,0,0,1,21.05339,38.95253Zm.002-23.24414a.5455.5455,0,0,0-.21679.04492c-.96094.42579-3.30469,2-4.25977,7.41016a19.59647,19.59647,0,0,0,0,6.835c.95508,5.40918,3.29883,6.9834,4.26172,7.41016a.56985.56985,0,0,0,.35742.02734l3.01172-.668-.53711-3.17285-2.30078.05567a2.14386,2.14386,0,0,1-1.30078-.40723,7.39536,7.39536,0,0,1-2.55371-4.74414,10.18149,10.18149,0,0,1,0-3.83692A7.402,7.402,0,0,1,20.069,19.91835a2.138,2.138,0,0,1,1.30372-.4082l2.2998.05566.53418-3.1748-3.00879-.666A.66656.66656,0,0,0,21.05534,15.70839Z"/><path class="cls-1" d="M29.25847,19.98085a.625.625,0,0,1-.47363-1.0332,1.35583,1.35583,0,0,0-.14454-1.91309.62463.62463,0,0,1,.81446-.94726,2.60563,2.60563,0,0,1,.27734,3.67676A.62457.62457,0,0,1,29.25847,19.98085Z"/><path class="cls-1" d="M31.64128,22.36367a.625.625,0,0,1-.4541-1.05469,4.72267,4.72267,0,0,0-.18555-6.67676.62517.62517,0,0,1,.85938-.9082,5.97383,5.97383,0,0,1,.23437,8.44433A.623.623,0,0,1,31.64128,22.36367Z"/><path class="cls-1" d="M34.02214,24.74453a.625.625,0,0,1-.44922-1.05958,8.08952,8.08952,0,0,0-.19531-11.43847.625.625,0,0,1,.86914-.89844,9.33966,9.33966,0,0,1,.22461,13.20606A.62187.62187,0,0,1,34.02214,24.74453Z"/></svg>