<svg id="圖層_1" data-name="圖層 1" xmlns="http://www.w3.org/2000/svg" viewBox="0 0 50 50"><defs><style>.cls-1{fill:#9fa0a0;}</style></defs><path class="cls-1" d="M17.77507,19.20776a.7502.7502,0,0,0,.75-.75v-4.5835H28.67155v1.91651a.7502.7502,0,0,0,.75.75h2.05371v1.917a.75.75,0,0,0,1.5,0v-2.667a.74591.74591,0,0,0-.0603-.29383c-.00641-.01507-.02-.02594-.02734-.04052a.74964.74964,0,0,0-.14057-.2016l-.00518-.00751-2.80371-2.6665a2275.444,2275.444,0,0,0-.23188-.149.74862.74862,0,0,0-.28473-.0575H17.77507a.7502.7502,0,0,0-.75.75v5.3335A.7502.7502,0,0,0,17.77507,19.20776Zm12.39648-4.33508.17676.16809h-.17676Z"/><path class="cls-1" d="M36.18816,19.41479H13.8112a2.21433,2.21433,0,0,0-2.21191,2.21191v8.40772a2.21432,2.21432,0,0,0,2.21191,2.21191h3.21387v3.7168a1.6646,1.6646,0,0,0,1.66309,1.6626h12.624a1.6646,1.6646,0,0,0,1.66308-1.6626v-3.7168h3.2129a2.21432,2.21432,0,0,0,2.21191-2.21191V21.6267A2.21433,2.21433,0,0,0,36.18816,19.41479Zm-4.7129,16.54834a.16455.16455,0,0,1-.16308.1626h-12.624a.16456.16456,0,0,1-.16309-.1626v-7.2168a.16455.16455,0,0,1,.16309-.16259h12.624a.16454.16454,0,0,1,.16308.16259Zm5.42481-5.92871a.71268.71268,0,0,1-.71191.71191h-3.2129v-2a1.66459,1.66459,0,0,0-1.66308-1.66259h-12.624a1.66459,1.66459,0,0,0-1.66309,1.66259v2H13.8112a.71268.71268,0,0,1-.71191-.71191V21.6267a.71268.71268,0,0,1,.71191-.71191h22.377a.71269.71269,0,0,1,.71191.71191Z"/></svg>