<svg id="圖層_1" data-name="圖層 1" xmlns="http://www.w3.org/2000/svg" viewBox="0 0 50 50"><defs><style>.cls-1{fill:#9fa0a0;}</style></defs><circle class="cls-1" cx="25.03742" cy="31.2495" r="2.58667"/><path class="cls-1" d="M37.306,21.17626a17.61549,17.61549,0,0,0-24.6123-.00049.95611.95611,0,0,0,1.33593,1.36816A15.70272,15.70272,0,0,1,35.97,22.54344.95576.95576,0,1,0,37.306,21.17626Z"/><path class="cls-1" d="M25.33429,22.21385a11.11341,11.11341,0,0,0-8.16015,3.19727A.95608.95608,0,0,0,18.514,26.77538a9.26787,9.26787,0,0,1,12.98535,0,.95609.95609,0,0,0,1.33985-1.36426A11.15031,11.15031,0,0,0,25.33429,22.21385Z"/></svg>